<svg xmlns="http://www.w3.org/2000/svg" width="438" height="484" viewBox="0 0 438 484" fill="none">
  <g filter="url(#filter0_f_185_111)">
    <path fill-rule="evenodd" clip-rule="evenodd" d="M356.072 -86.6278C387.207 -96.388 416.735 -117.064 448.816 -111.056C480.524 -105.117 498.347 -72.7003 525.287 -54.9362C557.541 -33.6688 611.793 -33.5489 622.621 3.54674C633.46 40.6791 584.611 68.742 572.065 105.316C560.387 139.357 572.368 179.493 552.073 209.202C529.514 242.224 494.232 266.441 455.423 276.058C414.711 286.146 364.666 290.812 332.753 263.548C300.32 235.84 322.525 178.488 299.314 142.692C275.997 106.73 212.789 103.915 202.302 62.3586C192.18 22.2458 221.247 -20.2608 250.935 -49.0256C278.221 -75.4626 319.822 -75.2645 356.072 -86.6278Z" fill="#F6821F" fill-opacity="0.1"/>
  </g>
  <defs>
    <filter id="filter0_f_185_111" x="0.249268" y="-312.132" width="823.929" height="796.1" filterUnits="userSpaceOnUse" color-interpolation-filters="sRGB">
      <feFlood flood-opacity="0" result="BackgroundImageFix"/>
      <feBlend mode="normal" in="SourceGraphic" in2="BackgroundImageFix" result="shape"/>
      <feGaussianBlur stdDeviation="100" result="effect1_foregroundBlur_185_111"/>
    </filter>
  </defs>
</svg>