<svg xmlns="http://www.w3.org/2000/svg" width="14" height="14" viewBox="0 0 14 14" fill="none">
  <g clip-path="url(#clip0_185_356)">
    <path d="M7 0C3.13359 0 0 3.13359 0 7C0 9.9668 1.8457 12.4988 4.44883 13.5187C4.38867 12.9637 4.33125 12.116 4.47344 11.5117C4.60195 10.9648 5.29375 8.03359 5.29375 8.03359C5.29375 8.03359 5.0832 7.61523 5.0832 6.99453C5.0832 6.02109 5.64648 5.29375 6.34922 5.29375C6.94531 5.29375 7.23516 5.74219 7.23516 6.28086C7.23516 6.88242 6.85234 7.7793 6.65547 8.61055C6.49141 9.30781 7.00547 9.87656 7.6918 9.87656C8.93594 9.87656 9.89297 8.56406 9.89297 6.67188C9.89297 4.9957 8.68984 3.82266 6.96992 3.82266C4.9793 3.82266 3.80898 5.31562 3.80898 6.86055C3.80898 7.46211 4.04141 8.10742 4.33125 8.45742C4.38867 8.52578 4.39687 8.58867 4.38047 8.65703C4.32852 8.87852 4.2082 9.3543 4.18633 9.45C4.15625 9.57852 4.08516 9.60586 3.95117 9.54297C3.07617 9.13555 2.5293 7.85859 2.5293 6.83047C2.5293 4.62109 4.13438 2.59492 7.15313 2.59492C9.58125 2.59492 11.468 4.32578 11.468 6.63906C11.468 9.05078 9.94766 10.9922 7.83672 10.9922C7.12852 10.9922 6.46133 10.623 6.23164 10.1883C6.23164 10.1883 5.88164 11.5254 5.79688 11.8535C5.63828 12.4605 5.21172 13.2234 4.92734 13.6883C5.58359 13.8906 6.27812 14 7 14C10.8664 14 14 10.8664 14 7C14 3.13359 10.8664 0 7 0Z" fill="#A6A6A6"/>
  </g>
  <defs>
    <clipPath id="clip0_185_356">
      <rect width="14" height="14" fill="white"/>
    </clipPath>
  </defs>
</svg>