<svg width="252" height="27" viewBox="0 0 252 27" fill="none" xmlns="http://www.w3.org/2000/svg">
<path d="M7.74889 1.008L11.4729 1.008L19.1729 21L15.4209 21L13.5449 15.708L5.56489 15.708L3.68889 21L0.0768882 21L7.74889 1.008ZM6.51689 13.048L12.6209 13.048L9.62489 4.452L9.54089 4.452L6.51689 13.048ZM18.3607 6.524L20.7407 6.524L20.7407 5.32C20.7407 4.40533 20.8527 3.668 21.0767 3.108C21.3007 2.52933 21.5993 2.09067 21.9727 1.792C22.346 1.47467 22.766 1.26933 23.2327 1.176C23.718 1.064 24.222 1.008 24.7447 1.008C25.7713 1.008 26.518 1.07333 26.9847 1.204L26.9847 3.696C26.7793 3.64 26.5553 3.60267 26.3127 3.584C26.0887 3.54667 25.818 3.528 25.5007 3.528C25.0713 3.528 24.698 3.63067 24.3807 3.836C24.082 4.04133 23.9327 4.44267 23.9327 5.04L23.9327 6.524L26.6487 6.524L26.6487 8.904L23.9327 8.904L23.9327 21L20.7407 21L20.7407 8.904L18.3607 8.904L18.3607 6.524ZM26.3247 6.524L28.7327 6.524L28.7327 2.184L31.9247 2.184L31.9247 6.524L34.8087 6.524L34.8087 8.904L31.9247 8.904L31.9247 16.632C31.9247 16.968 31.934 17.2573 31.9527 17.5C31.99 17.7427 32.0554 17.948 32.1487 18.116C32.2607 18.284 32.4194 18.4147 32.6247 18.508C32.83 18.5827 33.11 18.62 33.4647 18.62C33.6887 18.62 33.9127 18.62 34.1367 18.62C34.3607 18.6013 34.5847 18.564 34.8087 18.508L34.8087 20.972C34.454 21.0093 34.1087 21.0467 33.7727 21.084C33.4367 21.1213 33.0914 21.14 32.7367 21.14C31.8967 21.14 31.2154 21.0653 30.6927 20.916C30.1887 20.748 29.7874 20.5147 29.4887 20.216C29.2087 19.8987 29.0127 19.5067 28.9007 19.04C28.8074 18.5733 28.7514 18.0413 28.7327 17.444L28.7327 8.904L26.3247 8.904L26.3247 6.524ZM46.2049 12.488C46.1676 11.984 46.0556 11.4987 45.8689 11.032C45.7009 10.5653 45.4582 10.164 45.1409 9.828C44.8422 9.47333 44.4689 9.19333 44.0209 8.988C43.5916 8.764 43.1062 8.652 42.5649 8.652C42.0049 8.652 41.4916 8.75467 41.0249 8.96C40.5769 9.14667 40.1849 9.41733 39.8489 9.772C39.5316 10.108 39.2702 10.5093 39.0649 10.976C38.8782 11.4427 38.7756 11.9467 38.7569 12.488L46.2049 12.488ZM38.7569 14.588C38.7569 15.148 38.8316 15.6893 38.9809 16.212C39.1489 16.7347 39.3916 17.192 39.7089 17.584C40.0262 17.976 40.4276 18.2933 40.9129 18.536C41.3982 18.76 41.9769 18.872 42.6489 18.872C43.5822 18.872 44.3289 18.676 44.8889 18.284C45.4676 17.8733 45.8969 17.2667 46.1769 16.464L49.2009 16.464C49.0329 17.248 48.7436 17.948 48.3329 18.564C47.9222 19.18 47.4276 19.7027 46.8489 20.132C46.2702 20.5427 45.6169 20.8507 44.8889 21.056C44.1796 21.28 43.4329 21.392 42.6489 21.392C41.5102 21.392 40.5022 21.2053 39.6249 20.832C38.7476 20.4587 38.0009 19.936 37.3849 19.264C36.7876 18.592 36.3302 17.7893 36.0129 16.856C35.7142 15.9227 35.5649 14.896 35.5649 13.776C35.5649 12.7493 35.7236 11.7787 36.0409 10.864C36.3769 9.93067 36.8436 9.11867 37.4409 8.428C38.0569 7.71867 38.7942 7.15867 39.6529 6.748C40.5116 6.33733 41.4822 6.132 42.5649 6.132C43.7036 6.132 44.7209 6.37467 45.6169 6.86C46.5316 7.32667 47.2876 7.952 47.8849 8.736C48.4822 9.52 48.9116 10.4253 49.1729 11.452C49.4529 12.46 49.5276 13.5053 49.3969 14.588L38.7569 14.588ZM50.9835 6.524L53.9795 6.524L53.9795 9.324L54.0355 9.324C54.1288 8.932 54.3062 8.54933 54.5675 8.176C54.8475 7.80267 55.1742 7.46667 55.5475 7.168C55.9395 6.85067 56.3688 6.59867 56.8355 6.412C57.3022 6.22533 57.7782 6.132 58.2635 6.132C58.6368 6.132 58.8888 6.14133 59.0195 6.16C59.1688 6.17867 59.3182 6.19733 59.4675 6.216L59.4675 9.296C59.2435 9.25867 59.0102 9.23067 58.7675 9.212C58.5435 9.17467 58.3195 9.156 58.0955 9.156C57.5542 9.156 57.0408 9.268 56.5555 9.492C56.0888 9.69733 55.6782 10.0147 55.3235 10.444C54.9688 10.8547 54.6888 11.368 54.4835 11.984C54.2782 12.6 54.1755 13.3093 54.1755 14.112L54.1755 21L50.9835 21L50.9835 6.524ZM62.3953 16.352C62.4886 17.2853 62.8433 17.9387 63.4593 18.312C64.0753 18.6853 64.8126 18.872 65.6713 18.872C65.9699 18.872 66.3059 18.8533 66.6793 18.816C67.0713 18.76 67.4353 18.6667 67.7713 18.536C68.1073 18.4053 68.3779 18.2187 68.5833 17.976C68.8073 17.7147 68.9099 17.3787 68.8913 16.968C68.8726 16.5573 68.7233 16.2213 68.4433 15.96C68.1633 15.6987 67.7993 15.4933 67.3513 15.344C66.9219 15.176 66.4273 15.036 65.8673 14.924C65.3073 14.812 64.7379 14.6907 64.1593 14.56C63.5619 14.4293 62.9833 14.2707 62.4233 14.084C61.8819 13.8973 61.3873 13.6453 60.9393 13.328C60.5099 13.0107 60.1646 12.6093 59.9033 12.124C59.6419 11.62 59.5113 11.004 59.5113 10.276C59.5113 9.492 59.6979 8.83867 60.0713 8.316C60.4633 7.77467 60.9486 7.34533 61.5273 7.028C62.1246 6.692 62.7779 6.45867 63.4873 6.328C64.2153 6.19733 64.9059 6.132 65.5593 6.132C66.3059 6.132 67.0153 6.216 67.6873 6.384C68.3779 6.53333 68.9939 6.78533 69.5353 7.14C70.0953 7.49467 70.5526 7.96133 70.9073 8.54C71.2806 9.1 71.5139 9.78133 71.6073 10.584L68.2753 10.584C68.1259 9.81867 67.7713 9.30533 67.2113 9.044C66.6699 8.78267 66.0446 8.652 65.3353 8.652C65.1113 8.652 64.8406 8.67067 64.5233 8.708C64.2246 8.74533 63.9353 8.82 63.6553 8.932C63.3939 9.02533 63.1699 9.17467 62.9833 9.38C62.7966 9.56667 62.7033 9.81867 62.7033 10.136C62.7033 10.528 62.8339 10.8453 63.0953 11.088C63.3753 11.3307 63.7299 11.536 64.1593 11.704C64.6073 11.8533 65.1113 11.984 65.6713 12.096C66.2313 12.208 66.8099 12.3293 67.4073 12.46C67.9859 12.5907 68.5553 12.7493 69.1153 12.936C69.6753 13.1227 70.1699 13.3747 70.5993 13.692C71.0473 14.0093 71.4019 14.4107 71.6633 14.896C71.9433 15.3813 72.0833 15.9787 72.0833 16.688C72.0833 17.5467 71.8873 18.2747 71.4953 18.872C71.1033 19.4693 70.5899 19.9547 69.9553 20.328C69.3393 20.7013 68.6486 20.972 67.8833 21.14C67.1179 21.308 66.3619 21.392 65.6153 21.392C64.7006 21.392 63.8513 21.2893 63.0673 21.084C62.3019 20.8787 61.6299 20.5707 61.0513 20.16C60.4913 19.7307 60.0433 19.208 59.7073 18.592C59.3899 17.9573 59.2219 17.2107 59.2033 16.352L62.3953 16.352ZM73.6668 1.008L76.8588 1.008L76.8588 8.428L76.9148 8.428C77.3068 7.77467 77.8855 7.23333 78.6508 6.804C79.4348 6.356 80.3028 6.132 81.2548 6.132C82.8415 6.132 84.0921 6.54267 85.0068 7.364C85.9215 8.18533 86.3788 9.41733 86.3788 11.06L86.3788 21L83.1868 21L83.1868 11.9C83.1495 10.7613 82.9068 9.94 82.4588 9.436C82.0108 8.91333 81.3108 8.652 80.3588 8.652C79.8175 8.652 79.3321 8.75467 78.9028 8.96C78.4735 9.14667 78.1095 9.41733 77.8108 9.772C77.5121 10.108 77.2788 10.5093 77.1108 10.976C76.9428 11.4427 76.8588 11.9373 76.8588 12.46L76.8588 21L73.6668 21L73.6668 1.008ZM95.5409 21.392C94.3836 21.392 93.3476 21.2053 92.4329 20.832C91.5369 20.44 90.7716 19.908 90.1369 19.236C89.5209 18.564 89.0449 17.7613 88.7089 16.828C88.3916 15.8947 88.2329 14.868 88.2329 13.748C88.2329 12.6467 88.3916 11.6293 88.7089 10.696C89.0449 9.76267 89.5209 8.96 90.1369 8.288C90.7716 7.616 91.5369 7.09333 92.4329 6.72C93.3476 6.328 94.3836 6.132 95.5409 6.132C96.6982 6.132 97.7249 6.328 98.6209 6.72C99.5356 7.09333 100.301 7.616 100.917 8.288C101.552 8.96 102.028 9.76267 102.345 10.696C102.681 11.6293 102.849 12.6467 102.849 13.748C102.849 14.868 102.681 15.8947 102.345 16.828C102.028 17.7613 101.552 18.564 100.917 19.236C100.301 19.908 99.5356 20.44 98.6209 20.832C97.7249 21.2053 96.6982 21.392 95.5409 21.392ZM95.5409 18.872C96.2502 18.872 96.8662 18.7227 97.3889 18.424C97.9116 18.1253 98.3409 17.7333 98.6769 17.248C99.0129 16.7627 99.2556 16.2213 99.4049 15.624C99.5729 15.008 99.6569 14.3827 99.6569 13.748C99.6569 13.132 99.5729 12.516 99.4049 11.9C99.2556 11.284 99.0129 10.7427 98.6769 10.276C98.3409 9.79067 97.9116 9.39867 97.3889 9.1C96.8662 8.80133 96.2502 8.652 95.5409 8.652C94.8316 8.652 94.2156 8.80133 93.6929 9.1C93.1702 9.39867 92.7409 9.79067 92.4049 10.276C92.0689 10.7427 91.8169 11.284 91.6489 11.9C91.4996 12.516 91.4249 13.132 91.4249 13.748C91.4249 14.3827 91.4996 15.008 91.6489 15.624C91.8169 16.2213 92.0689 16.7627 92.4049 17.248C92.7409 17.7333 93.1702 18.1253 93.6929 18.424C94.2156 18.7227 94.8316 18.872 95.5409 18.872ZM111.299 21.392C110.141 21.392 109.105 21.2053 108.191 20.832C107.295 20.44 106.529 19.908 105.895 19.236C105.279 18.564 104.803 17.7613 104.467 16.828C104.149 15.8947 103.991 14.868 103.991 13.748C103.991 12.6467 104.149 11.6293 104.467 10.696C104.803 9.76267 105.279 8.96 105.895 8.288C106.529 7.616 107.295 7.09333 108.191 6.72C109.105 6.328 110.141 6.132 111.299 6.132C112.456 6.132 113.483 6.328 114.379 6.72C115.293 7.09333 116.059 7.616 116.675 8.288C117.309 8.96 117.785 9.76267 118.103 10.696C118.439 11.6293 118.607 12.6467 118.607 13.748C118.607 14.868 118.439 15.8947 118.103 16.828C117.785 17.7613 117.309 18.564 116.675 19.236C116.059 19.908 115.293 20.44 114.379 20.832C113.483 21.2053 112.456 21.392 111.299 21.392ZM111.299 18.872C112.008 18.872 112.624 18.7227 113.147 18.424C113.669 18.1253 114.099 17.7333 114.435 17.248C114.771 16.7627 115.013 16.2213 115.163 15.624C115.331 15.008 115.415 14.3827 115.415 13.748C115.415 13.132 115.331 12.516 115.163 11.9C115.013 11.284 114.771 10.7427 114.435 10.276C114.099 9.79067 113.669 9.39867 113.147 9.1C112.624 8.80133 112.008 8.652 111.299 8.652C110.589 8.652 109.973 8.80133 109.451 9.1C108.928 9.39867 108.499 9.79067 108.163 10.276C107.827 10.7427 107.575 11.284 107.407 11.9C107.257 12.516 107.183 13.132 107.183 13.748C107.183 14.3827 107.257 15.008 107.407 15.624C107.575 16.2213 107.827 16.7627 108.163 17.248C108.499 17.7333 108.928 18.1253 109.451 18.424C109.973 18.7227 110.589 18.872 111.299 18.872ZM118.964 6.524L121.372 6.524L121.372 2.184L124.564 2.184L124.564 6.524L127.448 6.524L127.448 8.904L124.564 8.904L124.564 16.632C124.564 16.968 124.574 17.2573 124.592 17.5C124.63 17.7427 124.695 17.948 124.788 18.116C124.9 18.284 125.059 18.4147 125.264 18.508C125.47 18.5827 125.75 18.62 126.104 18.62C126.328 18.62 126.552 18.62 126.776 18.62C127 18.6013 127.224 18.564 127.448 18.508L127.448 20.972C127.094 21.0093 126.748 21.0467 126.412 21.084C126.076 21.1213 125.731 21.14 125.376 21.14C124.536 21.14 123.855 21.0653 123.332 20.916C122.828 20.748 122.427 20.5147 122.128 20.216C121.848 19.8987 121.652 19.5067 121.54 19.04C121.447 18.5733 121.391 18.0413 121.372 17.444L121.372 8.904L118.964 8.904L118.964 6.524ZM138.601 14.336C138.601 15.1013 138.732 15.7547 138.993 16.296C139.255 16.8373 139.619 17.2853 140.085 17.64C140.552 17.976 141.084 18.228 141.681 18.396C142.297 18.5453 142.96 18.62 143.669 18.62C144.435 18.62 145.088 18.536 145.629 18.368C146.171 18.1813 146.609 17.948 146.945 17.668C147.281 17.388 147.524 17.0707 147.673 16.716C147.823 16.3427 147.897 15.9693 147.897 15.596C147.897 14.8307 147.72 14.2707 147.365 13.916C147.029 13.5427 146.656 13.2813 146.245 13.132C145.536 12.8707 144.705 12.628 143.753 12.404C142.82 12.1613 141.663 11.8533 140.281 11.48C139.423 11.256 138.704 10.9667 138.125 10.612C137.565 10.2387 137.117 9.828 136.781 9.38C136.445 8.932 136.203 8.456 136.053 7.952C135.923 7.448 135.857 6.93467 135.857 6.412C135.857 5.404 136.063 4.536 136.473 3.808C136.903 3.06133 137.463 2.44533 138.153 1.96C138.844 1.47467 139.628 1.12 140.505 0.895999C141.383 0.653333 142.269 0.532 143.165 0.532C144.211 0.532 145.191 0.672 146.105 0.952C147.039 1.21333 147.851 1.61467 148.541 2.156C149.251 2.69733 149.811 3.36933 150.221 4.172C150.632 4.956 150.837 5.87067 150.837 6.916L147.337 6.916C147.244 5.628 146.805 4.72267 146.021 4.2C145.237 3.65867 144.239 3.388 143.025 3.388C142.615 3.388 142.195 3.43467 141.765 3.528C141.336 3.60267 140.944 3.74267 140.589 3.948C140.235 4.13467 139.936 4.396 139.693 4.732C139.469 5.068 139.357 5.488 139.357 5.992C139.357 6.70133 139.572 7.26133 140.001 7.672C140.449 8.064 141.028 8.36267 141.737 8.568C141.812 8.58667 142.101 8.67067 142.605 8.82C143.128 8.95067 143.707 9.1 144.341 9.268C144.976 9.436 145.592 9.604 146.189 9.772C146.805 9.92133 147.244 10.0333 147.505 10.108C148.159 10.3133 148.728 10.5933 149.213 10.948C149.699 11.3027 150.1 11.7133 150.417 12.18C150.753 12.628 150.996 13.1133 151.145 13.636C151.313 14.1587 151.397 14.6813 151.397 15.204C151.397 16.324 151.164 17.2853 150.697 18.088C150.249 18.872 149.652 19.516 148.905 20.02C148.159 20.524 147.309 20.888 146.357 21.112C145.405 21.3547 144.435 21.476 143.445 21.476C142.307 21.476 141.233 21.336 140.225 21.056C139.217 20.776 138.34 20.3467 137.593 19.768C136.847 19.1893 136.249 18.452 135.801 17.556C135.353 16.6413 135.12 15.568 135.101 14.336L138.601 14.336ZM153.174 6.524L156.198 6.524L156.198 8.652L156.254 8.708C156.739 7.90533 157.374 7.28 158.158 6.832C158.942 6.36533 159.81 6.132 160.762 6.132C162.348 6.132 163.599 6.54267 164.514 7.364C165.428 8.18533 165.886 9.41733 165.886 11.06L165.886 21L162.694 21L162.694 11.9C162.656 10.7613 162.414 9.94 161.966 9.436C161.518 8.91333 160.818 8.652 159.866 8.652C159.324 8.652 158.839 8.75467 158.41 8.96C157.98 9.14667 157.616 9.41733 157.318 9.772C157.019 10.108 156.786 10.5093 156.618 10.976C156.45 11.4427 156.366 11.9373 156.366 12.46L156.366 21L153.174 21L153.174 6.524ZM180.536 17.78C180.536 18.172 180.582 18.452 180.676 18.62C180.788 18.788 180.993 18.872 181.292 18.872C181.385 18.872 181.497 18.872 181.628 18.872C181.758 18.872 181.908 18.8533 182.076 18.816L182.076 21.028C181.964 21.0653 181.814 21.1027 181.628 21.14C181.46 21.196 181.282 21.2427 181.096 21.28C180.909 21.3173 180.722 21.3453 180.536 21.364C180.349 21.3827 180.19 21.392 180.06 21.392C179.406 21.392 178.865 21.2613 178.436 21C178.006 20.7387 177.726 20.2813 177.596 19.628C176.961 20.244 176.177 20.692 175.244 20.972C174.329 21.252 173.442 21.392 172.584 21.392C171.93 21.392 171.305 21.2987 170.708 21.112C170.11 20.944 169.578 20.692 169.112 20.356C168.664 20.0013 168.3 19.5627 168.02 19.04C167.758 18.4987 167.628 17.8733 167.628 17.164C167.628 16.268 167.786 15.54 168.104 14.98C168.44 14.42 168.869 13.9813 169.392 13.664C169.933 13.3467 170.53 13.1227 171.184 12.992C171.856 12.8427 172.528 12.7307 173.2 12.656C173.778 12.544 174.329 12.4693 174.852 12.432C175.374 12.376 175.832 12.292 176.224 12.18C176.634 12.068 176.952 11.9 177.176 11.676C177.418 11.4333 177.54 11.0787 177.54 10.612C177.54 10.2013 177.437 9.86533 177.232 9.604C177.045 9.34267 176.802 9.14667 176.504 9.016C176.224 8.86667 175.906 8.77333 175.552 8.736C175.197 8.68 174.861 8.652 174.544 8.652C173.648 8.652 172.91 8.83867 172.332 9.212C171.753 9.58533 171.426 10.164 171.352 10.948L168.16 10.948C168.216 10.0147 168.44 9.24 168.832 8.624C169.224 8.008 169.718 7.51333 170.316 7.14C170.932 6.76667 171.622 6.50533 172.388 6.356C173.153 6.20667 173.937 6.132 174.74 6.132C175.449 6.132 176.149 6.20667 176.84 6.356C177.53 6.50533 178.146 6.748 178.688 7.084C179.248 7.42 179.696 7.85867 180.032 8.4C180.368 8.92267 180.536 9.56667 180.536 10.332L180.536 17.78ZM177.344 13.748C176.858 14.0653 176.261 14.2613 175.552 14.336C174.842 14.392 174.133 14.4853 173.424 14.616C173.088 14.672 172.761 14.756 172.444 14.868C172.126 14.9613 171.846 15.1013 171.604 15.288C171.361 15.456 171.165 15.6893 171.016 15.988C170.885 16.268 170.82 16.6133 170.82 17.024C170.82 17.3787 170.922 17.6773 171.128 17.92C171.333 18.1627 171.576 18.3587 171.856 18.508C172.154 18.6387 172.472 18.732 172.808 18.788C173.162 18.844 173.48 18.872 173.76 18.872C174.114 18.872 174.497 18.8253 174.908 18.732C175.318 18.6387 175.701 18.48 176.056 18.256C176.429 18.032 176.737 17.752 176.98 17.416C177.222 17.0613 177.344 16.632 177.344 16.128L177.344 13.748ZM183.214 6.524L186.238 6.524L186.238 8.484L186.294 8.484C186.742 7.644 187.368 7.04667 188.17 6.692C188.973 6.31867 189.841 6.132 190.774 6.132C191.913 6.132 192.902 6.33733 193.742 6.748C194.601 7.14 195.31 7.69067 195.87 8.4C196.43 9.09067 196.85 9.90267 197.13 10.836C197.41 11.7693 197.55 12.768 197.55 13.832C197.55 14.8027 197.42 15.7453 197.158 16.66C196.916 17.5747 196.533 18.3867 196.01 19.096C195.506 19.7867 194.862 20.3467 194.078 20.776C193.294 21.1867 192.37 21.392 191.306 21.392C190.84 21.392 190.373 21.3453 189.906 21.252C189.44 21.1773 188.992 21.0467 188.562 20.86C188.133 20.6733 187.732 20.44 187.358 20.16C187.004 19.8613 186.705 19.516 186.462 19.124L186.406 19.124L186.406 26.348L183.214 26.348L183.214 6.524ZM194.358 13.776C194.358 13.1227 194.274 12.488 194.106 11.872C193.938 11.256 193.686 10.7147 193.35 10.248C193.014 9.76267 192.594 9.38 192.09 9.1C191.586 8.80133 191.008 8.652 190.354 8.652C189.01 8.652 187.993 9.11867 187.302 10.052C186.63 10.9853 186.294 12.2267 186.294 13.776C186.294 14.504 186.378 15.1853 186.546 15.82C186.733 16.436 187.004 16.968 187.358 17.416C187.713 17.864 188.133 18.2187 188.618 18.48C189.122 18.7413 189.701 18.872 190.354 18.872C191.082 18.872 191.698 18.7227 192.202 18.424C192.706 18.1253 193.117 17.7427 193.434 17.276C193.77 16.7907 194.004 16.2493 194.134 15.652C194.284 15.036 194.358 14.4107 194.358 13.776ZM201.816 16.352C201.909 17.2853 202.264 17.9387 202.88 18.312C203.496 18.6853 204.233 18.872 205.092 18.872C205.39 18.872 205.726 18.8533 206.1 18.816C206.492 18.76 206.856 18.6667 207.192 18.536C207.528 18.4053 207.798 18.2187 208.004 17.976C208.228 17.7147 208.33 17.3787 208.312 16.968C208.293 16.5573 208.144 16.2213 207.864 15.96C207.584 15.6987 207.22 15.4933 206.772 15.344C206.342 15.176 205.848 15.036 205.288 14.924C204.728 14.812 204.158 14.6907 203.58 14.56C202.982 14.4293 202.404 14.2707 201.844 14.084C201.302 13.8973 200.808 13.6453 200.36 13.328C199.93 13.0107 199.585 12.6093 199.324 12.124C199.062 11.62 198.932 11.004 198.932 10.276C198.932 9.492 199.118 8.83867 199.492 8.316C199.884 7.77467 200.369 7.34533 200.948 7.028C201.545 6.692 202.198 6.45867 202.908 6.328C203.636 6.19733 204.326 6.132 204.98 6.132C205.726 6.132 206.436 6.216 207.108 6.384C207.798 6.53333 208.414 6.78533 208.956 7.14C209.516 7.49467 209.973 7.96133 210.328 8.54C210.701 9.1 210.934 9.78133 211.028 10.584L207.696 10.584C207.546 9.81867 207.192 9.30533 206.632 9.044C206.09 8.78267 205.465 8.652 204.756 8.652C204.532 8.652 204.261 8.67067 203.944 8.708C203.645 8.74533 203.356 8.82 203.076 8.932C202.814 9.02533 202.59 9.17467 202.404 9.38C202.217 9.56667 202.124 9.81867 202.124 10.136C202.124 10.528 202.254 10.8453 202.516 11.088C202.796 11.3307 203.15 11.536 203.58 11.704C204.028 11.8533 204.532 11.984 205.092 12.096C205.652 12.208 206.23 12.3293 206.828 12.46C207.406 12.5907 207.976 12.7493 208.536 12.936C209.096 13.1227 209.59 13.3747 210.02 13.692C210.468 14.0093 210.822 14.4107 211.084 14.896C211.364 15.3813 211.504 15.9787 211.504 16.688C211.504 17.5467 211.308 18.2747 210.916 18.872C210.524 19.4693 210.01 19.9547 209.376 20.328C208.76 20.7013 208.069 20.972 207.304 21.14C206.538 21.308 205.782 21.392 205.036 21.392C204.121 21.392 203.272 21.2893 202.488 21.084C201.722 20.8787 201.05 20.5707 200.472 20.16C199.912 19.7307 199.464 19.208 199.128 18.592C198.81 17.9573 198.642 17.2107 198.624 16.352L201.816 16.352ZM213.087 1.008L216.279 1.008L216.279 8.428L216.335 8.428C216.727 7.77467 217.306 7.23333 218.071 6.804C218.855 6.356 219.723 6.132 220.675 6.132C222.262 6.132 223.512 6.54267 224.427 7.364C225.342 8.18533 225.799 9.41733 225.799 11.06L225.799 21L222.607 21L222.607 11.9C222.57 10.7613 222.327 9.94 221.879 9.436C221.431 8.91333 220.731 8.652 219.779 8.652C219.238 8.652 218.752 8.75467 218.323 8.96C217.894 9.14667 217.53 9.41733 217.231 9.772C216.932 10.108 216.699 10.5093 216.531 10.976C216.363 11.4427 216.279 11.9373 216.279 12.46L216.279 21L213.087 21L213.087 1.008ZM234.961 21.392C233.804 21.392 232.768 21.2053 231.853 20.832C230.957 20.44 230.192 19.908 229.557 19.236C228.941 18.564 228.465 17.7613 228.129 16.828C227.812 15.8947 227.653 14.868 227.653 13.748C227.653 12.6467 227.812 11.6293 228.129 10.696C228.465 9.76267 228.941 8.96 229.557 8.288C230.192 7.616 230.957 7.09333 231.853 6.72C232.768 6.328 233.804 6.132 234.961 6.132C236.119 6.132 237.145 6.328 238.041 6.72C238.956 7.09333 239.721 7.616 240.337 8.288C240.972 8.96 241.448 9.76267 241.765 10.696C242.101 11.6293 242.269 12.6467 242.269 13.748C242.269 14.868 242.101 15.8947 241.765 16.828C241.448 17.7613 240.972 18.564 240.337 19.236C239.721 19.908 238.956 20.44 238.041 20.832C237.145 21.2053 236.119 21.392 234.961 21.392ZM234.961 18.872C235.671 18.872 236.287 18.7227 236.809 18.424C237.332 18.1253 237.761 17.7333 238.097 17.248C238.433 16.7627 238.676 16.2213 238.825 15.624C238.993 15.008 239.077 14.3827 239.077 13.748C239.077 13.132 238.993 12.516 238.825 11.9C238.676 11.284 238.433 10.7427 238.097 10.276C237.761 9.79067 237.332 9.39867 236.809 9.1C236.287 8.80133 235.671 8.652 234.961 8.652C234.252 8.652 233.636 8.80133 233.113 9.1C232.591 9.39867 232.161 9.79067 231.825 10.276C231.489 10.7427 231.237 11.284 231.069 11.9C230.92 12.516 230.845 13.132 230.845 13.748C230.845 14.3827 230.92 15.008 231.069 15.624C231.237 16.2213 231.489 16.7627 231.825 17.248C232.161 17.7333 232.591 18.1253 233.113 18.424C233.636 18.7227 234.252 18.872 234.961 18.872ZM242.627 6.524L245.035 6.524L245.035 2.184L248.227 2.184L248.227 6.524L251.111 6.524L251.111 8.904L248.227 8.904L248.227 16.632C248.227 16.968 248.236 17.2573 248.255 17.5C248.292 17.7427 248.358 17.948 248.451 18.116C248.563 18.284 248.722 18.4147 248.927 18.508C249.132 18.5827 249.412 18.62 249.767 18.62C249.991 18.62 250.215 18.62 250.439 18.62C250.663 18.6013 250.887 18.564 251.111 18.508L251.111 20.972C250.756 21.0093 250.411 21.0467 250.075 21.084C249.739 21.1213 249.394 21.14 249.039 21.14C248.199 21.14 247.518 21.0653 246.995 20.916C246.491 20.748 246.09 20.5147 245.791 20.216C245.511 19.8987 245.315 19.5067 245.203 19.04C245.11 18.5733 245.054 18.0413 245.035 17.444L245.035 8.904L242.627 8.904L242.627 6.524Z" fill="white" fill-opacity="0.2"/>
<path d="M7.74889 1.008L11.4729 1.008L19.1729 21L15.4209 21L13.5449 15.708L5.56489 15.708L3.68889 21L0.0768882 21L7.74889 1.008ZM6.51689 13.048L12.6209 13.048L9.62489 4.452L9.54089 4.452L6.51689 13.048ZM18.3607 6.524L20.7407 6.524L20.7407 5.32C20.7407 4.40533 20.8527 3.668 21.0767 3.108C21.3007 2.52933 21.5993 2.09067 21.9727 1.792C22.346 1.47467 22.766 1.26933 23.2327 1.176C23.718 1.064 24.222 1.008 24.7447 1.008C25.7713 1.008 26.518 1.07333 26.9847 1.204L26.9847 3.696C26.7793 3.64 26.5553 3.60267 26.3127 3.584C26.0887 3.54667 25.818 3.528 25.5007 3.528C25.0713 3.528 24.698 3.63067 24.3807 3.836C24.082 4.04133 23.9327 4.44267 23.9327 5.04L23.9327 6.524L26.6487 6.524L26.6487 8.904L23.9327 8.904L23.9327 21L20.7407 21L20.7407 8.904L18.3607 8.904L18.3607 6.524ZM26.3247 6.524L28.7327 6.524L28.7327 2.184L31.9247 2.184L31.9247 6.524L34.8087 6.524L34.8087 8.904L31.9247 8.904L31.9247 16.632C31.9247 16.968 31.934 17.2573 31.9527 17.5C31.99 17.7427 32.0554 17.948 32.1487 18.116C32.2607 18.284 32.4194 18.4147 32.6247 18.508C32.83 18.5827 33.11 18.62 33.4647 18.62C33.6887 18.62 33.9127 18.62 34.1367 18.62C34.3607 18.6013 34.5847 18.564 34.8087 18.508L34.8087 20.972C34.454 21.0093 34.1087 21.0467 33.7727 21.084C33.4367 21.1213 33.0914 21.14 32.7367 21.14C31.8967 21.14 31.2154 21.0653 30.6927 20.916C30.1887 20.748 29.7874 20.5147 29.4887 20.216C29.2087 19.8987 29.0127 19.5067 28.9007 19.04C28.8074 18.5733 28.7514 18.0413 28.7327 17.444L28.7327 8.904L26.3247 8.904L26.3247 6.524ZM46.2049 12.488C46.1676 11.984 46.0556 11.4987 45.8689 11.032C45.7009 10.5653 45.4582 10.164 45.1409 9.828C44.8422 9.47333 44.4689 9.19333 44.0209 8.988C43.5916 8.764 43.1062 8.652 42.5649 8.652C42.0049 8.652 41.4916 8.75467 41.0249 8.96C40.5769 9.14667 40.1849 9.41733 39.8489 9.772C39.5316 10.108 39.2702 10.5093 39.0649 10.976C38.8782 11.4427 38.7756 11.9467 38.7569 12.488L46.2049 12.488ZM38.7569 14.588C38.7569 15.148 38.8316 15.6893 38.9809 16.212C39.1489 16.7347 39.3916 17.192 39.7089 17.584C40.0262 17.976 40.4276 18.2933 40.9129 18.536C41.3982 18.76 41.9769 18.872 42.6489 18.872C43.5822 18.872 44.3289 18.676 44.8889 18.284C45.4676 17.8733 45.8969 17.2667 46.1769 16.464L49.2009 16.464C49.0329 17.248 48.7436 17.948 48.3329 18.564C47.9222 19.18 47.4276 19.7027 46.8489 20.132C46.2702 20.5427 45.6169 20.8507 44.8889 21.056C44.1796 21.28 43.4329 21.392 42.6489 21.392C41.5102 21.392 40.5022 21.2053 39.6249 20.832C38.7476 20.4587 38.0009 19.936 37.3849 19.264C36.7876 18.592 36.3302 17.7893 36.0129 16.856C35.7142 15.9227 35.5649 14.896 35.5649 13.776C35.5649 12.7493 35.7236 11.7787 36.0409 10.864C36.3769 9.93067 36.8436 9.11867 37.4409 8.428C38.0569 7.71867 38.7942 7.15867 39.6529 6.748C40.5116 6.33733 41.4822 6.132 42.5649 6.132C43.7036 6.132 44.7209 6.37467 45.6169 6.86C46.5316 7.32667 47.2876 7.952 47.8849 8.736C48.4822 9.52 48.9116 10.4253 49.1729 11.452C49.4529 12.46 49.5276 13.5053 49.3969 14.588L38.7569 14.588ZM50.9835 6.524L53.9795 6.524L53.9795 9.324L54.0355 9.324C54.1288 8.932 54.3062 8.54933 54.5675 8.176C54.8475 7.80267 55.1742 7.46667 55.5475 7.168C55.9395 6.85067 56.3688 6.59867 56.8355 6.412C57.3022 6.22533 57.7782 6.132 58.2635 6.132C58.6368 6.132 58.8888 6.14133 59.0195 6.16C59.1688 6.17867 59.3182 6.19733 59.4675 6.216L59.4675 9.296C59.2435 9.25867 59.0102 9.23067 58.7675 9.212C58.5435 9.17467 58.3195 9.156 58.0955 9.156C57.5542 9.156 57.0408 9.268 56.5555 9.492C56.0888 9.69733 55.6782 10.0147 55.3235 10.444C54.9688 10.8547 54.6888 11.368 54.4835 11.984C54.2782 12.6 54.1755 13.3093 54.1755 14.112L54.1755 21L50.9835 21L50.9835 6.524ZM62.3953 16.352C62.4886 17.2853 62.8433 17.9387 63.4593 18.312C64.0753 18.6853 64.8126 18.872 65.6713 18.872C65.9699 18.872 66.3059 18.8533 66.6793 18.816C67.0713 18.76 67.4353 18.6667 67.7713 18.536C68.1073 18.4053 68.3779 18.2187 68.5833 17.976C68.8073 17.7147 68.9099 17.3787 68.8913 16.968C68.8726 16.5573 68.7233 16.2213 68.4433 15.96C68.1633 15.6987 67.7993 15.4933 67.3513 15.344C66.9219 15.176 66.4273 15.036 65.8673 14.924C65.3073 14.812 64.7379 14.6907 64.1593 14.56C63.5619 14.4293 62.9833 14.2707 62.4233 14.084C61.8819 13.8973 61.3873 13.6453 60.9393 13.328C60.5099 13.0107 60.1646 12.6093 59.9033 12.124C59.6419 11.62 59.5113 11.004 59.5113 10.276C59.5113 9.492 59.6979 8.83867 60.0713 8.316C60.4633 7.77467 60.9486 7.34533 61.5273 7.028C62.1246 6.692 62.7779 6.45867 63.4873 6.328C64.2153 6.19733 64.9059 6.132 65.5593 6.132C66.3059 6.132 67.0153 6.216 67.6873 6.384C68.3779 6.53333 68.9939 6.78533 69.5353 7.14C70.0953 7.49467 70.5526 7.96133 70.9073 8.54C71.2806 9.1 71.5139 9.78133 71.6073 10.584L68.2753 10.584C68.1259 9.81867 67.7713 9.30533 67.2113 9.044C66.6699 8.78267 66.0446 8.652 65.3353 8.652C65.1113 8.652 64.8406 8.67067 64.5233 8.708C64.2246 8.74533 63.9353 8.82 63.6553 8.932C63.3939 9.02533 63.1699 9.17467 62.9833 9.38C62.7966 9.56667 62.7033 9.81867 62.7033 10.136C62.7033 10.528 62.8339 10.8453 63.0953 11.088C63.3753 11.3307 63.7299 11.536 64.1593 11.704C64.6073 11.8533 65.1113 11.984 65.6713 12.096C66.2313 12.208 66.8099 12.3293 67.4073 12.46C67.9859 12.5907 68.5553 12.7493 69.1153 12.936C69.6753 13.1227 70.1699 13.3747 70.5993 13.692C71.0473 14.0093 71.4019 14.4107 71.6633 14.896C71.9433 15.3813 72.0833 15.9787 72.0833 16.688C72.0833 17.5467 71.8873 18.2747 71.4953 18.872C71.1033 19.4693 70.5899 19.9547 69.9553 20.328C69.3393 20.7013 68.6486 20.972 67.8833 21.14C67.1179 21.308 66.3619 21.392 65.6153 21.392C64.7006 21.392 63.8513 21.2893 63.0673 21.084C62.3019 20.8787 61.6299 20.5707 61.0513 20.16C60.4913 19.7307 60.0433 19.208 59.7073 18.592C59.3899 17.9573 59.2219 17.2107 59.2033 16.352L62.3953 16.352ZM73.6668 1.008L76.8588 1.008L76.8588 8.428L76.9148 8.428C77.3068 7.77467 77.8855 7.23333 78.6508 6.804C79.4348 6.356 80.3028 6.132 81.2548 6.132C82.8415 6.132 84.0921 6.54267 85.0068 7.364C85.9215 8.18533 86.3788 9.41733 86.3788 11.06L86.3788 21L83.1868 21L83.1868 11.9C83.1495 10.7613 82.9068 9.94 82.4588 9.436C82.0108 8.91333 81.3108 8.652 80.3588 8.652C79.8175 8.652 79.3321 8.75467 78.9028 8.96C78.4735 9.14667 78.1095 9.41733 77.8108 9.772C77.5121 10.108 77.2788 10.5093 77.1108 10.976C76.9428 11.4427 76.8588 11.9373 76.8588 12.46L76.8588 21L73.6668 21L73.6668 1.008ZM95.5409 21.392C94.3836 21.392 93.3476 21.2053 92.4329 20.832C91.5369 20.44 90.7716 19.908 90.1369 19.236C89.5209 18.564 89.0449 17.7613 88.7089 16.828C88.3916 15.8947 88.2329 14.868 88.2329 13.748C88.2329 12.6467 88.3916 11.6293 88.7089 10.696C89.0449 9.76267 89.5209 8.96 90.1369 8.288C90.7716 7.616 91.5369 7.09333 92.4329 6.72C93.3476 6.328 94.3836 6.132 95.5409 6.132C96.6982 6.132 97.7249 6.328 98.6209 6.72C99.5356 7.09333 100.301 7.616 100.917 8.288C101.552 8.96 102.028 9.76267 102.345 10.696C102.681 11.6293 102.849 12.6467 102.849 13.748C102.849 14.868 102.681 15.8947 102.345 16.828C102.028 17.7613 101.552 18.564 100.917 19.236C100.301 19.908 99.5356 20.44 98.6209 20.832C97.7249 21.2053 96.6982 21.392 95.5409 21.392ZM95.5409 18.872C96.2502 18.872 96.8662 18.7227 97.3889 18.424C97.9116 18.1253 98.3409 17.7333 98.6769 17.248C99.0129 16.7627 99.2556 16.2213 99.4049 15.624C99.5729 15.008 99.6569 14.3827 99.6569 13.748C99.6569 13.132 99.5729 12.516 99.4049 11.9C99.2556 11.284 99.0129 10.7427 98.6769 10.276C98.3409 9.79067 97.9116 9.39867 97.3889 9.1C96.8662 8.80133 96.2502 8.652 95.5409 8.652C94.8316 8.652 94.2156 8.80133 93.6929 9.1C93.1702 9.39867 92.7409 9.79067 92.4049 10.276C92.0689 10.7427 91.8169 11.284 91.6489 11.9C91.4996 12.516 91.4249 13.132 91.4249 13.748C91.4249 14.3827 91.4996 15.008 91.6489 15.624C91.8169 16.2213 92.0689 16.7627 92.4049 17.248C92.7409 17.7333 93.1702 18.1253 93.6929 18.424C94.2156 18.7227 94.8316 18.872 95.5409 18.872ZM111.299 21.392C110.141 21.392 109.105 21.2053 108.191 20.832C107.295 20.44 106.529 19.908 105.895 19.236C105.279 18.564 104.803 17.7613 104.467 16.828C104.149 15.8947 103.991 14.868 103.991 13.748C103.991 12.6467 104.149 11.6293 104.467 10.696C104.803 9.76267 105.279 8.96 105.895 8.288C106.529 7.616 107.295 7.09333 108.191 6.72C109.105 6.328 110.141 6.132 111.299 6.132C112.456 6.132 113.483 6.328 114.379 6.72C115.293 7.09333 116.059 7.616 116.675 8.288C117.309 8.96 117.785 9.76267 118.103 10.696C118.439 11.6293 118.607 12.6467 118.607 13.748C118.607 14.868 118.439 15.8947 118.103 16.828C117.785 17.7613 117.309 18.564 116.675 19.236C116.059 19.908 115.293 20.44 114.379 20.832C113.483 21.2053 112.456 21.392 111.299 21.392ZM111.299 18.872C112.008 18.872 112.624 18.7227 113.147 18.424C113.669 18.1253 114.099 17.7333 114.435 17.248C114.771 16.7627 115.013 16.2213 115.163 15.624C115.331 15.008 115.415 14.3827 115.415 13.748C115.415 13.132 115.331 12.516 115.163 11.9C115.013 11.284 114.771 10.7427 114.435 10.276C114.099 9.79067 113.669 9.39867 113.147 9.1C112.624 8.80133 112.008 8.652 111.299 8.652C110.589 8.652 109.973 8.80133 109.451 9.1C108.928 9.39867 108.499 9.79067 108.163 10.276C107.827 10.7427 107.575 11.284 107.407 11.9C107.257 12.516 107.183 13.132 107.183 13.748C107.183 14.3827 107.257 15.008 107.407 15.624C107.575 16.2213 107.827 16.7627 108.163 17.248C108.499 17.7333 108.928 18.1253 109.451 18.424C109.973 18.7227 110.589 18.872 111.299 18.872ZM118.964 6.524L121.372 6.524L121.372 2.184L124.564 2.184L124.564 6.524L127.448 6.524L127.448 8.904L124.564 8.904L124.564 16.632C124.564 16.968 124.574 17.2573 124.592 17.5C124.63 17.7427 124.695 17.948 124.788 18.116C124.9 18.284 125.059 18.4147 125.264 18.508C125.47 18.5827 125.75 18.62 126.104 18.62C126.328 18.62 126.552 18.62 126.776 18.62C127 18.6013 127.224 18.564 127.448 18.508L127.448 20.972C127.094 21.0093 126.748 21.0467 126.412 21.084C126.076 21.1213 125.731 21.14 125.376 21.14C124.536 21.14 123.855 21.0653 123.332 20.916C122.828 20.748 122.427 20.5147 122.128 20.216C121.848 19.8987 121.652 19.5067 121.54 19.04C121.447 18.5733 121.391 18.0413 121.372 17.444L121.372 8.904L118.964 8.904L118.964 6.524ZM138.601 14.336C138.601 15.1013 138.732 15.7547 138.993 16.296C139.255 16.8373 139.619 17.2853 140.085 17.64C140.552 17.976 141.084 18.228 141.681 18.396C142.297 18.5453 142.96 18.62 143.669 18.62C144.435 18.62 145.088 18.536 145.629 18.368C146.171 18.1813 146.609 17.948 146.945 17.668C147.281 17.388 147.524 17.0707 147.673 16.716C147.823 16.3427 147.897 15.9693 147.897 15.596C147.897 14.8307 147.72 14.2707 147.365 13.916C147.029 13.5427 146.656 13.2813 146.245 13.132C145.536 12.8707 144.705 12.628 143.753 12.404C142.82 12.1613 141.663 11.8533 140.281 11.48C139.423 11.256 138.704 10.9667 138.125 10.612C137.565 10.2387 137.117 9.828 136.781 9.38C136.445 8.932 136.203 8.456 136.053 7.952C135.923 7.448 135.857 6.93467 135.857 6.412C135.857 5.404 136.063 4.536 136.473 3.808C136.903 3.06133 137.463 2.44533 138.153 1.96C138.844 1.47467 139.628 1.12 140.505 0.895999C141.383 0.653333 142.269 0.532 143.165 0.532C144.211 0.532 145.191 0.672 146.105 0.952C147.039 1.21333 147.851 1.61467 148.541 2.156C149.251 2.69733 149.811 3.36933 150.221 4.172C150.632 4.956 150.837 5.87067 150.837 6.916L147.337 6.916C147.244 5.628 146.805 4.72267 146.021 4.2C145.237 3.65867 144.239 3.388 143.025 3.388C142.615 3.388 142.195 3.43467 141.765 3.528C141.336 3.60267 140.944 3.74267 140.589 3.948C140.235 4.13467 139.936 4.396 139.693 4.732C139.469 5.068 139.357 5.488 139.357 5.992C139.357 6.70133 139.572 7.26133 140.001 7.672C140.449 8.064 141.028 8.36267 141.737 8.568C141.812 8.58667 142.101 8.67067 142.605 8.82C143.128 8.95067 143.707 9.1 144.341 9.268C144.976 9.436 145.592 9.604 146.189 9.772C146.805 9.92133 147.244 10.0333 147.505 10.108C148.159 10.3133 148.728 10.5933 149.213 10.948C149.699 11.3027 150.1 11.7133 150.417 12.18C150.753 12.628 150.996 13.1133 151.145 13.636C151.313 14.1587 151.397 14.6813 151.397 15.204C151.397 16.324 151.164 17.2853 150.697 18.088C150.249 18.872 149.652 19.516 148.905 20.02C148.159 20.524 147.309 20.888 146.357 21.112C145.405 21.3547 144.435 21.476 143.445 21.476C142.307 21.476 141.233 21.336 140.225 21.056C139.217 20.776 138.34 20.3467 137.593 19.768C136.847 19.1893 136.249 18.452 135.801 17.556C135.353 16.6413 135.12 15.568 135.101 14.336L138.601 14.336ZM153.174 6.524L156.198 6.524L156.198 8.652L156.254 8.708C156.739 7.90533 157.374 7.28 158.158 6.832C158.942 6.36533 159.81 6.132 160.762 6.132C162.348 6.132 163.599 6.54267 164.514 7.364C165.428 8.18533 165.886 9.41733 165.886 11.06L165.886 21L162.694 21L162.694 11.9C162.656 10.7613 162.414 9.94 161.966 9.436C161.518 8.91333 160.818 8.652 159.866 8.652C159.324 8.652 158.839 8.75467 158.41 8.96C157.98 9.14667 157.616 9.41733 157.318 9.772C157.019 10.108 156.786 10.5093 156.618 10.976C156.45 11.4427 156.366 11.9373 156.366 12.46L156.366 21L153.174 21L153.174 6.524ZM180.536 17.78C180.536 18.172 180.582 18.452 180.676 18.62C180.788 18.788 180.993 18.872 181.292 18.872C181.385 18.872 181.497 18.872 181.628 18.872C181.758 18.872 181.908 18.8533 182.076 18.816L182.076 21.028C181.964 21.0653 181.814 21.1027 181.628 21.14C181.46 21.196 181.282 21.2427 181.096 21.28C180.909 21.3173 180.722 21.3453 180.536 21.364C180.349 21.3827 180.19 21.392 180.06 21.392C179.406 21.392 178.865 21.2613 178.436 21C178.006 20.7387 177.726 20.2813 177.596 19.628C176.961 20.244 176.177 20.692 175.244 20.972C174.329 21.252 173.442 21.392 172.584 21.392C171.93 21.392 171.305 21.2987 170.708 21.112C170.11 20.944 169.578 20.692 169.112 20.356C168.664 20.0013 168.3 19.5627 168.02 19.04C167.758 18.4987 167.628 17.8733 167.628 17.164C167.628 16.268 167.786 15.54 168.104 14.98C168.44 14.42 168.869 13.9813 169.392 13.664C169.933 13.3467 170.53 13.1227 171.184 12.992C171.856 12.8427 172.528 12.7307 173.2 12.656C173.778 12.544 174.329 12.4693 174.852 12.432C175.374 12.376 175.832 12.292 176.224 12.18C176.634 12.068 176.952 11.9 177.176 11.676C177.418 11.4333 177.54 11.0787 177.54 10.612C177.54 10.2013 177.437 9.86533 177.232 9.604C177.045 9.34267 176.802 9.14667 176.504 9.016C176.224 8.86667 175.906 8.77333 175.552 8.736C175.197 8.68 174.861 8.652 174.544 8.652C173.648 8.652 172.91 8.83867 172.332 9.212C171.753 9.58533 171.426 10.164 171.352 10.948L168.16 10.948C168.216 10.0147 168.44 9.24 168.832 8.624C169.224 8.008 169.718 7.51333 170.316 7.14C170.932 6.76667 171.622 6.50533 172.388 6.356C173.153 6.20667 173.937 6.132 174.74 6.132C175.449 6.132 176.149 6.20667 176.84 6.356C177.53 6.50533 178.146 6.748 178.688 7.084C179.248 7.42 179.696 7.85867 180.032 8.4C180.368 8.92267 180.536 9.56667 180.536 10.332L180.536 17.78ZM177.344 13.748C176.858 14.0653 176.261 14.2613 175.552 14.336C174.842 14.392 174.133 14.4853 173.424 14.616C173.088 14.672 172.761 14.756 172.444 14.868C172.126 14.9613 171.846 15.1013 171.604 15.288C171.361 15.456 171.165 15.6893 171.016 15.988C170.885 16.268 170.82 16.6133 170.82 17.024C170.82 17.3787 170.922 17.6773 171.128 17.92C171.333 18.1627 171.576 18.3587 171.856 18.508C172.154 18.6387 172.472 18.732 172.808 18.788C173.162 18.844 173.48 18.872 173.76 18.872C174.114 18.872 174.497 18.8253 174.908 18.732C175.318 18.6387 175.701 18.48 176.056 18.256C176.429 18.032 176.737 17.752 176.98 17.416C177.222 17.0613 177.344 16.632 177.344 16.128L177.344 13.748ZM183.214 6.524L186.238 6.524L186.238 8.484L186.294 8.484C186.742 7.644 187.368 7.04667 188.17 6.692C188.973 6.31867 189.841 6.132 190.774 6.132C191.913 6.132 192.902 6.33733 193.742 6.748C194.601 7.14 195.31 7.69067 195.87 8.4C196.43 9.09067 196.85 9.90267 197.13 10.836C197.41 11.7693 197.55 12.768 197.55 13.832C197.55 14.8027 197.42 15.7453 197.158 16.66C196.916 17.5747 196.533 18.3867 196.01 19.096C195.506 19.7867 194.862 20.3467 194.078 20.776C193.294 21.1867 192.37 21.392 191.306 21.392C190.84 21.392 190.373 21.3453 189.906 21.252C189.44 21.1773 188.992 21.0467 188.562 20.86C188.133 20.6733 187.732 20.44 187.358 20.16C187.004 19.8613 186.705 19.516 186.462 19.124L186.406 19.124L186.406 26.348L183.214 26.348L183.214 6.524ZM194.358 13.776C194.358 13.1227 194.274 12.488 194.106 11.872C193.938 11.256 193.686 10.7147 193.35 10.248C193.014 9.76267 192.594 9.38 192.09 9.1C191.586 8.80133 191.008 8.652 190.354 8.652C189.01 8.652 187.993 9.11867 187.302 10.052C186.63 10.9853 186.294 12.2267 186.294 13.776C186.294 14.504 186.378 15.1853 186.546 15.82C186.733 16.436 187.004 16.968 187.358 17.416C187.713 17.864 188.133 18.2187 188.618 18.48C189.122 18.7413 189.701 18.872 190.354 18.872C191.082 18.872 191.698 18.7227 192.202 18.424C192.706 18.1253 193.117 17.7427 193.434 17.276C193.77 16.7907 194.004 16.2493 194.134 15.652C194.284 15.036 194.358 14.4107 194.358 13.776ZM201.816 16.352C201.909 17.2853 202.264 17.9387 202.88 18.312C203.496 18.6853 204.233 18.872 205.092 18.872C205.39 18.872 205.726 18.8533 206.1 18.816C206.492 18.76 206.856 18.6667 207.192 18.536C207.528 18.4053 207.798 18.2187 208.004 17.976C208.228 17.7147 208.33 17.3787 208.312 16.968C208.293 16.5573 208.144 16.2213 207.864 15.96C207.584 15.6987 207.22 15.4933 206.772 15.344C206.342 15.176 205.848 15.036 205.288 14.924C204.728 14.812 204.158 14.6907 203.58 14.56C202.982 14.4293 202.404 14.2707 201.844 14.084C201.302 13.8973 200.808 13.6453 200.36 13.328C199.93 13.0107 199.585 12.6093 199.324 12.124C199.062 11.62 198.932 11.004 198.932 10.276C198.932 9.492 199.118 8.83867 199.492 8.316C199.884 7.77467 200.369 7.34533 200.948 7.028C201.545 6.692 202.198 6.45867 202.908 6.328C203.636 6.19733 204.326 6.132 204.98 6.132C205.726 6.132 206.436 6.216 207.108 6.384C207.798 6.53333 208.414 6.78533 208.956 7.14C209.516 7.49467 209.973 7.96133 210.328 8.54C210.701 9.1 210.934 9.78133 211.028 10.584L207.696 10.584C207.546 9.81867 207.192 9.30533 206.632 9.044C206.09 8.78267 205.465 8.652 204.756 8.652C204.532 8.652 204.261 8.67067 203.944 8.708C203.645 8.74533 203.356 8.82 203.076 8.932C202.814 9.02533 202.59 9.17467 202.404 9.38C202.217 9.56667 202.124 9.81867 202.124 10.136C202.124 10.528 202.254 10.8453 202.516 11.088C202.796 11.3307 203.15 11.536 203.58 11.704C204.028 11.8533 204.532 11.984 205.092 12.096C205.652 12.208 206.23 12.3293 206.828 12.46C207.406 12.5907 207.976 12.7493 208.536 12.936C209.096 13.1227 209.59 13.3747 210.02 13.692C210.468 14.0093 210.822 14.4107 211.084 14.896C211.364 15.3813 211.504 15.9787 211.504 16.688C211.504 17.5467 211.308 18.2747 210.916 18.872C210.524 19.4693 210.01 19.9547 209.376 20.328C208.76 20.7013 208.069 20.972 207.304 21.14C206.538 21.308 205.782 21.392 205.036 21.392C204.121 21.392 203.272 21.2893 202.488 21.084C201.722 20.8787 201.05 20.5707 200.472 20.16C199.912 19.7307 199.464 19.208 199.128 18.592C198.81 17.9573 198.642 17.2107 198.624 16.352L201.816 16.352ZM213.087 1.008L216.279 1.008L216.279 8.428L216.335 8.428C216.727 7.77467 217.306 7.23333 218.071 6.804C218.855 6.356 219.723 6.132 220.675 6.132C222.262 6.132 223.512 6.54267 224.427 7.364C225.342 8.18533 225.799 9.41733 225.799 11.06L225.799 21L222.607 21L222.607 11.9C222.57 10.7613 222.327 9.94 221.879 9.436C221.431 8.91333 220.731 8.652 219.779 8.652C219.238 8.652 218.752 8.75467 218.323 8.96C217.894 9.14667 217.53 9.41733 217.231 9.772C216.932 10.108 216.699 10.5093 216.531 10.976C216.363 11.4427 216.279 11.9373 216.279 12.46L216.279 21L213.087 21L213.087 1.008ZM234.961 21.392C233.804 21.392 232.768 21.2053 231.853 20.832C230.957 20.44 230.192 19.908 229.557 19.236C228.941 18.564 228.465 17.7613 228.129 16.828C227.812 15.8947 227.653 14.868 227.653 13.748C227.653 12.6467 227.812 11.6293 228.129 10.696C228.465 9.76267 228.941 8.96 229.557 8.288C230.192 7.616 230.957 7.09333 231.853 6.72C232.768 6.328 233.804 6.132 234.961 6.132C236.119 6.132 237.145 6.328 238.041 6.72C238.956 7.09333 239.721 7.616 240.337 8.288C240.972 8.96 241.448 9.76267 241.765 10.696C242.101 11.6293 242.269 12.6467 242.269 13.748C242.269 14.868 242.101 15.8947 241.765 16.828C241.448 17.7613 240.972 18.564 240.337 19.236C239.721 19.908 238.956 20.44 238.041 20.832C237.145 21.2053 236.119 21.392 234.961 21.392ZM234.961 18.872C235.671 18.872 236.287 18.7227 236.809 18.424C237.332 18.1253 237.761 17.7333 238.097 17.248C238.433 16.7627 238.676 16.2213 238.825 15.624C238.993 15.008 239.077 14.3827 239.077 13.748C239.077 13.132 238.993 12.516 238.825 11.9C238.676 11.284 238.433 10.7427 238.097 10.276C237.761 9.79067 237.332 9.39867 236.809 9.1C236.287 8.80133 235.671 8.652 234.961 8.652C234.252 8.652 233.636 8.80133 233.113 9.1C232.591 9.39867 232.161 9.79067 231.825 10.276C231.489 10.7427 231.237 11.284 231.069 11.9C230.92 12.516 230.845 13.132 230.845 13.748C230.845 14.3827 230.92 15.008 231.069 15.624C231.237 16.2213 231.489 16.7627 231.825 17.248C232.161 17.7333 232.591 18.1253 233.113 18.424C233.636 18.7227 234.252 18.872 234.961 18.872ZM242.627 6.524L245.035 6.524L245.035 2.184L248.227 2.184L248.227 6.524L251.111 6.524L251.111 8.904L248.227 8.904L248.227 16.632C248.227 16.968 248.236 17.2573 248.255 17.5C248.292 17.7427 248.358 17.948 248.451 18.116C248.563 18.284 248.722 18.4147 248.927 18.508C249.132 18.5827 249.412 18.62 249.767 18.62C249.991 18.62 250.215 18.62 250.439 18.62C250.663 18.6013 250.887 18.564 251.111 18.508L251.111 20.972C250.756 21.0093 250.411 21.0467 250.075 21.084C249.739 21.1213 249.394 21.14 249.039 21.14C248.199 21.14 247.518 21.0653 246.995 20.916C246.491 20.748 246.09 20.5147 245.791 20.216C245.511 19.8987 245.315 19.5067 245.203 19.04C245.11 18.5733 245.054 18.0413 245.035 17.444L245.035 8.904L242.627 8.904L242.627 6.524Z" fill="url(#paint0_linear_139_81)"/>
<defs>
<linearGradient id="paint0_linear_139_81" x1="276.5" y1="-0.999993" x2="-58.981" y2="21.2866" gradientUnits="userSpaceOnUse">
<stop stop-color="#7E68B0"/>
<stop offset="0.184461" stop-color="#008AD2"/>
<stop offset="0.353157" stop-color="#21B24B"/>
<stop offset="0.519702" stop-color="#FFC40E"/>
<stop offset="0.687523" stop-color="#F6821F"/>
<stop offset="0.853193" stop-color="#EF4023"/>
<stop offset="1" stop-color="#7E68B0"/>
</linearGradient>
</defs>
</svg>
