<svg xmlns="http://www.w3.org/2000/svg" width="14" height="14" viewBox="0 0 14 14" fill="none">
  <path d="M7 2.08047C8.60313 2.08047 8.79297 2.0875 9.42344 2.11562C10.0094 2.14141 10.3258 2.23984 10.5367 2.32188C10.8156 2.42969 11.0172 2.56094 11.2258 2.76953C11.4367 2.98047 11.5656 3.17969 11.6734 3.45859C11.7555 3.66953 11.8539 3.98828 11.8797 4.57187C11.9078 5.20469 11.9148 5.39453 11.9148 6.99531C11.9148 8.59844 11.9078 8.78828 11.8797 9.41875C11.8539 10.0047 11.7555 10.3211 11.6734 10.532C11.5656 10.8109 11.4344 11.0125 11.2258 11.2211C11.0148 11.432 10.8156 11.5609 10.5367 11.6688C10.3258 11.7508 10.007 11.8492 9.42344 11.875C8.79063 11.9031 8.60078 11.9102 7 11.9102C5.39688 11.9102 5.20703 11.9031 4.57656 11.875C3.99063 11.8492 3.67422 11.7508 3.46328 11.6688C3.18438 11.5609 2.98281 11.4297 2.77422 11.2211C2.56328 11.0102 2.43438 10.8109 2.32656 10.532C2.24453 10.3211 2.14609 10.0023 2.12031 9.41875C2.09219 8.78594 2.08516 8.59609 2.08516 6.99531C2.08516 5.39219 2.09219 5.20234 2.12031 4.57187C2.14609 3.98594 2.24453 3.66953 2.32656 3.45859C2.43438 3.17969 2.56563 2.97812 2.77422 2.76953C2.98516 2.55859 3.18438 2.42969 3.46328 2.32188C3.67422 2.23984 3.99297 2.14141 4.57656 2.11562C5.20703 2.0875 5.39688 2.08047 7 2.08047ZM7 1C5.37109 1 5.16719 1.00703 4.52734 1.03516C3.88984 1.06328 3.45156 1.16641 3.07188 1.31406C2.67578 1.46875 2.34063 1.67266 2.00781 2.00781C1.67266 2.34063 1.46875 2.67578 1.31406 3.06953C1.16641 3.45156 1.06328 3.8875 1.03516 4.525C1.00703 5.16719 1 5.37109 1 7C1 8.62891 1.00703 8.83281 1.03516 9.47266C1.06328 10.1102 1.16641 10.5484 1.31406 10.9281C1.46875 11.3242 1.67266 11.6594 2.00781 11.9922C2.34063 12.325 2.67578 12.5312 3.06953 12.6836C3.45156 12.8313 3.8875 12.9344 4.525 12.9625C5.16484 12.9906 5.36875 12.9977 6.99766 12.9977C8.62656 12.9977 8.83047 12.9906 9.47031 12.9625C10.1078 12.9344 10.5461 12.8313 10.9258 12.6836C11.3195 12.5312 11.6547 12.325 11.9875 11.9922C12.3203 11.6594 12.5266 11.3242 12.6789 10.9305C12.8266 10.5484 12.9297 10.1125 12.9578 9.475C12.9859 8.83516 12.993 8.63125 12.993 7.00234C12.993 5.37344 12.9859 5.16953 12.9578 4.52969C12.9297 3.89219 12.8266 3.45391 12.6789 3.07422C12.5312 2.67578 12.3273 2.34063 11.9922 2.00781C11.6594 1.675 11.3242 1.46875 10.9305 1.31641C10.5484 1.16875 10.1125 1.06563 9.475 1.0375C8.83281 1.00703 8.62891 1 7 1Z" fill="white" stroke="white" stroke-width="0.2" stroke-linejoin="round"/>
  <path d="M7 3.91797C5.29844 3.91797 3.91797 5.29844 3.91797 7C3.91797 8.70156 5.29844 10.082 7 10.082C8.70156 10.082 10.082 8.70156 10.082 7C10.082 5.29844 8.70156 3.91797 7 3.91797ZM7 8.99922C5.89609 8.99922 5.00078 8.10391 5.00078 7C5.00078 5.89609 5.89609 5.00078 7 5.00078C8.10391 5.00078 8.99922 5.89609 8.99922 7C8.99922 8.10391 8.10391 8.99922 7 8.99922Z" fill="white" stroke="white" stroke-width="0.2" stroke-linejoin="round"/>
  <path d="M10.9234 3.79607C10.9234 4.19451 10.6 4.5156 10.2039 4.5156C9.80547 4.5156 9.48438 4.19216 9.48438 3.79607C9.48438 3.39763 9.80781 3.07654 10.2039 3.07654C10.6 3.07654 10.9234 3.39998 10.9234 3.79607Z" fill="white" stroke="white" stroke-width="0.2" stroke-linejoin="round"/>
</svg>