<svg xmlns="http://www.w3.org/2000/svg" width="18" height="14" viewBox="0 0 18 14" fill="none">
  <path d="M16.892 3.58928C16.892 3.58928 16.7254 2.41294 16.2122 1.89642C15.5623 1.21661 14.8359 1.21327 14.5026 1.17329C12.1166 1 8.5343 1 8.5343 1H8.52763C8.52763 1 4.94529 1 2.55929 1.17329C2.22605 1.21327 1.49958 1.21661 0.849764 1.89642C0.336573 2.41294 0.173285 3.58928 0.173285 3.58928C0.173285 3.58928 0 4.97223 0 6.35185V7.64482C0 9.02444 0.169953 10.4074 0.169953 10.4074C0.169953 10.4074 0.336573 11.5837 0.846431 12.1003C1.49625 12.7801 2.34935 12.7567 2.72924 12.83C4.09553 12.96 8.53096 13 8.53096 13C8.53096 13 12.1166 12.9933 14.5026 12.8234C14.8359 12.7834 15.5623 12.7801 16.2122 12.1003C16.7254 11.5837 16.892 10.4074 16.892 10.4074C16.892 10.4074 17.0619 9.02777 17.0619 7.64482V6.35185C17.0619 4.97223 16.892 3.58928 16.892 3.58928ZM6.76812 9.21438V4.41905L11.3768 6.82505L6.76812 9.21438Z" fill="#A6A6A6"/>
</svg>